<?xml version="1.0" encoding="UTF-8" standalone="no"?>
<!DOCTYPE svg PUBLIC "-//W3C//DTD SVG 1.1//EN"
 "http://www.w3.org/Graphics/SVG/1.1/DTD/svg11.dtd">
<!-- Generated by graphviz version 2.43.0 (0)
 -->
<!-- Title: %3 Pages: 1 -->
<svg width="1312pt" height="128pt"
 viewBox="0.00 0.00 1311.69 128.00" xmlns="http://www.w3.org/2000/svg" xmlns:xlink="http://www.w3.org/1999/xlink">
<g id="graph0" class="graph" transform="scale(1 1) rotate(0) translate(4 124)">
<title>%3</title>
<polygon fill="white" stroke="transparent" points="-4,4 -4,-124 1307.69,-124 1307.69,4 -4,4"/>
<!-- 139642812498464 -->
<g id="node1" class="node">
<title>139642812498464</title>
<polygon fill="none" stroke="black" points="0.5,-83.5 0.5,-119.5 231.5,-119.5 231.5,-83.5 0.5,-83.5"/>
<text text-anchor="middle" x="13" y="-97.8" font-family="Times,serif" font-size="14.00">a</text>
<polyline fill="none" stroke="black" points="25.5,-83.5 25.5,-119.5 "/>
<text text-anchor="middle" x="76.5" y="-97.8" font-family="Times,serif" font-size="14.00">data 1.0000</text>
<polyline fill="none" stroke="black" points="127.5,-83.5 127.5,-119.5 "/>
<text text-anchor="middle" x="179.5" y="-97.8" font-family="Times,serif" font-size="14.00">grad 0.0000</text>
</g>
<!-- 139642812500240* -->
<g id="node8" class="node">
<title>139642812500240*</title>
<ellipse fill="none" stroke="black" cx="295" cy="-73.5" rx="27" ry="18"/>
<text text-anchor="middle" x="295" y="-69.8" font-family="Times,serif" font-size="14.00">*</text>
</g>
<!-- 139642812498464&#45;&gt;139642812500240* -->
<g id="edge6" class="edge">
<title>139642812498464&#45;&gt;139642812500240*</title>
<path fill="none" stroke="black" d="M231.1,-83.45C240.88,-81.9 250.21,-80.43 258.54,-79.11"/>
<polygon fill="black" stroke="black" points="259.19,-82.55 268.52,-77.53 258.1,-75.64 259.19,-82.55"/>
</g>
<!-- 139642812503648 -->
<g id="node2" class="node">
<title>139642812503648</title>
<polygon fill="none" stroke="black" points="358,-0.5 358,-36.5 588,-36.5 588,-0.5 358,-0.5"/>
<text text-anchor="middle" x="370" y="-14.8" font-family="Times,serif" font-size="14.00">c</text>
<polyline fill="none" stroke="black" points="382,-0.5 382,-36.5 "/>
<text text-anchor="middle" x="433" y="-14.8" font-family="Times,serif" font-size="14.00">data 3.0000</text>
<polyline fill="none" stroke="black" points="484,-0.5 484,-36.5 "/>
<text text-anchor="middle" x="536" y="-14.8" font-family="Times,serif" font-size="14.00">grad 0.0000</text>
</g>
<!-- 139642812507248+ -->
<g id="node4" class="node">
<title>139642812507248+</title>
<ellipse fill="none" stroke="black" cx="651" cy="-45.5" rx="27" ry="18"/>
<text text-anchor="middle" x="651" y="-41.8" font-family="Times,serif" font-size="14.00">+</text>
</g>
<!-- 139642812503648&#45;&gt;139642812507248+ -->
<g id="edge5" class="edge">
<title>139642812503648&#45;&gt;139642812507248+</title>
<path fill="none" stroke="black" d="M588.44,-36.06C597.76,-37.49 606.63,-38.85 614.6,-40.07"/>
<polygon fill="black" stroke="black" points="614.1,-43.53 624.51,-41.59 615.16,-36.61 614.1,-43.53"/>
</g>
<!-- 139642812507248 -->
<g id="node3" class="node">
<title>139642812507248</title>
<polygon fill="none" stroke="black" points="714,-27.5 714,-63.5 941,-63.5 941,-27.5 714,-27.5"/>
<text text-anchor="middle" x="724.5" y="-41.8" font-family="Times,serif" font-size="14.00"> </text>
<polyline fill="none" stroke="black" points="735,-27.5 735,-63.5 "/>
<text text-anchor="middle" x="786" y="-41.8" font-family="Times,serif" font-size="14.00">data 5.0000</text>
<polyline fill="none" stroke="black" points="837,-27.5 837,-63.5 "/>
<text text-anchor="middle" x="889" y="-41.8" font-family="Times,serif" font-size="14.00">grad 0.0000</text>
</g>
<!-- 139642812500720tanh -->
<g id="node6" class="node">
<title>139642812500720tanh</title>
<ellipse fill="none" stroke="black" cx="1008.85" cy="-45.5" rx="31.7" ry="18"/>
<text text-anchor="middle" x="1008.85" y="-41.8" font-family="Times,serif" font-size="14.00">tanh</text>
</g>
<!-- 139642812507248&#45;&gt;139642812500720tanh -->
<g id="edge7" class="edge">
<title>139642812507248&#45;&gt;139642812500720tanh</title>
<path fill="none" stroke="black" d="M941.06,-45.5C949.97,-45.5 958.55,-45.5 966.42,-45.5"/>
<polygon fill="black" stroke="black" points="966.68,-49 976.68,-45.5 966.68,-42 966.68,-49"/>
</g>
<!-- 139642812507248+&#45;&gt;139642812507248 -->
<g id="edge1" class="edge">
<title>139642812507248+&#45;&gt;139642812507248</title>
<path fill="none" stroke="black" d="M678.12,-45.5C685.67,-45.5 694.45,-45.5 703.9,-45.5"/>
<polygon fill="black" stroke="black" points="703.95,-49 713.95,-45.5 703.95,-42 703.95,-49"/>
</g>
<!-- 139642812500720 -->
<g id="node5" class="node">
<title>139642812500720</title>
<polygon fill="none" stroke="black" points="1076.69,-27.5 1076.69,-63.5 1303.69,-63.5 1303.69,-27.5 1076.69,-27.5"/>
<text text-anchor="middle" x="1087.19" y="-41.8" font-family="Times,serif" font-size="14.00"> </text>
<polyline fill="none" stroke="black" points="1097.69,-27.5 1097.69,-63.5 "/>
<text text-anchor="middle" x="1148.69" y="-41.8" font-family="Times,serif" font-size="14.00">data 0.9999</text>
<polyline fill="none" stroke="black" points="1199.69,-27.5 1199.69,-63.5 "/>
<text text-anchor="middle" x="1251.69" y="-41.8" font-family="Times,serif" font-size="14.00">grad 0.0000</text>
</g>
<!-- 139642812500720tanh&#45;&gt;139642812500720 -->
<g id="edge2" class="edge">
<title>139642812500720tanh&#45;&gt;139642812500720</title>
<path fill="none" stroke="black" d="M1041.09,-45.5C1048.68,-45.5 1057.26,-45.5 1066.37,-45.5"/>
<polygon fill="black" stroke="black" points="1066.45,-49 1076.45,-45.5 1066.45,-42 1066.45,-49"/>
</g>
<!-- 139642812500240 -->
<g id="node7" class="node">
<title>139642812500240</title>
<polygon fill="none" stroke="black" points="359.5,-55.5 359.5,-91.5 586.5,-91.5 586.5,-55.5 359.5,-55.5"/>
<text text-anchor="middle" x="370" y="-69.8" font-family="Times,serif" font-size="14.00"> </text>
<polyline fill="none" stroke="black" points="380.5,-55.5 380.5,-91.5 "/>
<text text-anchor="middle" x="431.5" y="-69.8" font-family="Times,serif" font-size="14.00">data 2.0000</text>
<polyline fill="none" stroke="black" points="482.5,-55.5 482.5,-91.5 "/>
<text text-anchor="middle" x="534.5" y="-69.8" font-family="Times,serif" font-size="14.00">grad 0.0000</text>
</g>
<!-- 139642812500240&#45;&gt;139642812507248+ -->
<g id="edge4" class="edge">
<title>139642812500240&#45;&gt;139642812507248+</title>
<path fill="none" stroke="black" d="M586.96,-55.53C596.75,-53.97 606.09,-52.49 614.44,-51.16"/>
<polygon fill="black" stroke="black" points="615.12,-54.59 624.44,-49.57 614.02,-47.68 615.12,-54.59"/>
</g>
<!-- 139642812500240*&#45;&gt;139642812500240 -->
<g id="edge3" class="edge">
<title>139642812500240*&#45;&gt;139642812500240</title>
<path fill="none" stroke="black" d="M322.35,-73.5C330.19,-73.5 339.34,-73.5 349.18,-73.5"/>
<polygon fill="black" stroke="black" points="349.24,-77 359.24,-73.5 349.24,-70 349.24,-77"/>
</g>
<!-- 139642812508640 -->
<g id="node9" class="node">
<title>139642812508640</title>
<polygon fill="none" stroke="black" points="0,-28.5 0,-64.5 232,-64.5 232,-28.5 0,-28.5"/>
<text text-anchor="middle" x="13" y="-42.8" font-family="Times,serif" font-size="14.00">b</text>
<polyline fill="none" stroke="black" points="26,-28.5 26,-64.5 "/>
<text text-anchor="middle" x="77" y="-42.8" font-family="Times,serif" font-size="14.00">data 2.0000</text>
<polyline fill="none" stroke="black" points="128,-28.5 128,-64.5 "/>
<text text-anchor="middle" x="180" y="-42.8" font-family="Times,serif" font-size="14.00">grad 0.0000</text>
</g>
<!-- 139642812508640&#45;&gt;139642812500240* -->
<g id="edge8" class="edge">
<title>139642812508640&#45;&gt;139642812500240*</title>
<path fill="none" stroke="black" d="M232.09,-64.06C241.46,-65.49 250.39,-66.85 258.4,-68.07"/>
<polygon fill="black" stroke="black" points="257.96,-71.54 268.37,-69.59 259.01,-64.62 257.96,-71.54"/>
</g>
</g>
</svg>
